<svg id="Capa_1" enable-background="new 0 0 497 497" height="512" viewBox="0 0 497 497" width="512" xmlns="http://www.w3.org/2000/svg"><g><path d="m79.488 25.876c3.916-8.422 10.475-15.702 19.268-20.489 21.801-11.867 49.21-3.405 61.248 18.306 24.916 44.944 34.97 81.286 38.435 107.794 2.303 17.605-11.296 30.904-26.418 31.866z" fill="#d0d0ce"/><path d="m172.021 163.353c-6.549.421-13.389-1.482-19.348-6.349-20.8-16.994-46.557-44.874-71.743-90.139-7.31-13.129-7.35-28.341-1.442-40.989 27.119 16.463 76.85 56.821 92.533 137.477z" fill="#ff9dd3"/><path d="m417.512 25.876c-3.916-8.422-10.475-15.702-19.268-20.489-21.801-11.867-49.21-3.405-61.248 18.306-24.916 44.944-34.97 81.286-38.435 107.794-2.303 17.605 11.296 30.904 26.418 31.866z" fill="#d0d0ce"/><path d="m324.979 163.353c6.549.421 13.389-1.482 19.348-6.349 20.8-16.994 46.557-44.874 71.743-90.139 7.31-13.129 7.35-28.341 1.442-40.989-27.119 16.463-76.85 56.821-92.533 137.477z" fill="#ffb3dd"/><g><path d="m124.349 275.702-44.972-56.464c-10.337-12.979-8.196-31.88 4.783-42.217 12.98-10.338 31.88-8.195 42.217 4.783l44.972 56.464c10.337 12.979 8.196 31.88-4.783 42.218-12.922 10.29-31.834 8.253-42.217-4.784z" fill="#d0d0ce"/></g><g><path d="m372.651 275.702 44.972-56.464c10.337-12.979 8.196-31.88-4.783-42.217-12.98-10.338-31.88-8.195-42.217 4.783l-44.972 56.464c-10.337 12.979-8.196 31.88 4.783 42.218 12.922 10.29 31.834 8.253 42.217-4.784z" fill="#d0d0ce"/></g><path d="m337.295 317.191c18.777-44.085 30.196-93.285 30.196-123.702 0-65.717-53.274-118.99-118.99-118.99s-118.99 53.274-118.99 118.99c0 30.417 11.419 79.617 30.196 123.702z" fill="#dedede"/><path d="m383.994 374.605-135.494 32.086-135.494-32.086 10.495-77.882h249.998z" fill="#ff748f"/><path d="m157.86 258.398c0-65.336 16.802-125.763 45.287-174.943-43.218 17.833-73.638 60.377-73.638 110.033 0 30.417 11.419 79.617 30.196 123.702h2.797c-3.037-19.01-4.642-38.666-4.642-58.792z" fill="#d0d0ce"/><path d="m159.812 296.723h-36.311l-10.495 77.882 69.707 16.507c-11.568-29.095-19.464-60.868-22.901-94.389z" fill="#fd5f7e"/><path d="m412.568 245.081h-328.136c-13.071 0-23.667 10.596-23.667 23.667v24.776c0 13.071 10.596 23.667 23.667 23.667h328.135c13.071 0 23.667-10.596 23.667-23.667v-24.776c0-13.071-10.595-23.667-23.666-23.667z" fill="#5c586f"/><path d="m349.845 497h-202.69c-26.798 0-47.458-23.624-43.873-50.182l9.724-72.213h270.988l9.724 72.213c3.585 26.558-17.075 50.182-43.873 50.182z" fill="#5c586f"/><g fill="#423e4f"><path d="m188.714 156.213c-4.142 0-7.5 3.358-7.5 7.5v11.472c0 4.142 3.358 7.5 7.5 7.5s7.5-3.358 7.5-7.5v-11.472c0-4.142-3.358-7.5-7.5-7.5z"/><path d="m308.113 156.213c-4.142 0-7.5 3.358-7.5 7.5v11.472c0 4.142 3.358 7.5 7.5 7.5s7.5-3.358 7.5-7.5v-11.472c0-4.142-3.358-7.5-7.5-7.5z"/><path d="m276.226 174.525c-4.142 0-7.5 3.358-7.5 7.5 0 3.484-2.835 6.319-6.319 6.319s-6.319-2.835-6.319-6.319c0-4.142-3.358-7.5-7.5-7.5s-7.5 3.358-7.5 7.5c0 3.484-2.834 6.319-6.319 6.319s-6.319-2.835-6.319-6.319c0-4.142-3.358-7.5-7.5-7.5s-7.5 3.358-7.5 7.5c0 11.755 9.564 21.319 21.319 21.319 5.272 0 10.094-1.934 13.819-5.116 3.725 3.182 8.547 5.116 13.819 5.116 11.755 0 21.319-9.564 21.319-21.319 0-4.142-3.358-7.5-7.5-7.5z"/></g><g fill="#4f4c5f"><path d="m157.86 258.398c0-4.464.094-8.901.249-13.317h-73.677c-13.071 0-23.667 10.596-23.667 23.667v24.776c0 13.071 10.596 23.667 23.667 23.667h78.07c-3.037-19.011-4.642-38.667-4.642-58.793z"/><path d="m176.628 374.605h-63.622l-9.724 72.213c-3.585 26.558 17.075 50.182 43.873 50.182h105.92c-33.379-31.485-59.95-73.631-76.447-122.395z"/></g></g></svg>